<svg xmlns="http://www.w3.org/2000/svg" version="1.1" xmlns:xlink="http://www.w3.org/1999/xlink" xmlns:svgjs="http://svgjs.dev/svgjs" viewBox="0 0 800 800" opacity="0.23" width="800" height="800"><g stroke-width="0.5" stroke="hsl(261, 60%, 38%)" fill="none"><rect width="66.66666666666667" height="88.88888888888889" x="0" y="0"></rect><rect width="66.66666666666667" height="88.88888888888889" x="66.66666666666667" y="0"></rect><rect width="66.66666666666667" height="88.88888888888889" x="133.33333333333334" y="0"></rect><rect width="66.66666666666667" height="88.88888888888889" x="200" y="0"></rect><rect width="66.66666666666667" height="88.88888888888889" x="266.6666666666667" y="0"></rect><rect width="66.66666666666667" height="88.88888888888889" x="333.33333333333337" y="0"></rect><rect width="66.66666666666667" height="88.88888888888889" x="400.00000000000006" y="0"></rect><rect width="66.66666666666667" height="88.88888888888889" x="466.66666666666674" y="0"></rect><rect width="66.66666666666667" height="88.88888888888889" x="533.3333333333334" y="0"></rect><rect width="66.66666666666667" height="88.88888888888889" x="600" y="0"></rect><rect width="66.66666666666667" height="88.88888888888889" x="666.6666666666666" y="0"></rect><rect width="66.66666666666667" height="88.88888888888889" x="733.3333333333333" y="0"></rect><rect width="66.66666666666667" height="88.88888888888889" x="799.9999999999999" y="0"></rect><rect width="66.66666666666667" height="88.88888888888889" x="0" y="88.88888888888889"></rect><rect width="66.66666666666667" height="88.88888888888889" x="66.66666666666667" y="88.88888888888889"></rect><rect width="66.66666666666667" height="88.88888888888889" x="133.33333333333334" y="88.88888888888889"></rect><rect width="66.66666666666667" height="88.88888888888889" x="200" y="88.88888888888889"></rect><rect width="66.66666666666667" height="88.88888888888889" x="266.6666666666667" y="88.88888888888889"></rect><rect width="66.66666666666667" height="88.88888888888889" x="333.33333333333337" y="88.88888888888889"></rect><rect width="66.66666666666667" height="88.88888888888889" x="400.00000000000006" y="88.88888888888889"></rect><rect width="66.66666666666667" height="88.88888888888889" x="466.66666666666674" y="88.88888888888889"></rect><rect width="66.66666666666667" height="88.88888888888889" x="533.3333333333334" y="88.88888888888889"></rect><rect width="66.66666666666667" height="88.88888888888889" x="600" y="88.88888888888889"></rect><rect width="66.66666666666667" height="88.88888888888889" x="666.6666666666666" y="88.88888888888889"></rect><rect width="66.66666666666667" height="88.88888888888889" x="733.3333333333333" y="88.88888888888889"></rect><rect width="66.66666666666667" height="88.88888888888889" x="799.9999999999999" y="88.88888888888889"></rect><rect width="66.66666666666667" height="88.88888888888889" x="0" y="177.77777777777777"></rect><rect width="66.66666666666667" height="88.88888888888889" x="66.66666666666667" y="177.77777777777777"></rect><rect width="66.66666666666667" height="88.88888888888889" x="133.33333333333334" y="177.77777777777777"></rect><rect width="66.66666666666667" height="88.88888888888889" x="200" y="177.77777777777777"></rect><rect width="66.66666666666667" height="88.88888888888889" x="266.6666666666667" y="177.77777777777777"></rect><rect width="66.66666666666667" height="88.88888888888889" x="333.33333333333337" y="177.77777777777777"></rect><rect width="66.66666666666667" height="88.88888888888889" x="400.00000000000006" y="177.77777777777777"></rect><rect width="66.66666666666667" height="88.88888888888889" x="466.66666666666674" y="177.77777777777777"></rect><rect width="66.66666666666667" height="88.88888888888889" x="533.3333333333334" y="177.77777777777777"></rect><rect width="66.66666666666667" height="88.88888888888889" x="600" y="177.77777777777777"></rect><rect width="66.66666666666667" height="88.88888888888889" x="666.6666666666666" y="177.77777777777777"></rect><rect width="66.66666666666667" height="88.88888888888889" x="733.3333333333333" y="177.77777777777777"></rect><rect width="66.66666666666667" height="88.88888888888889" x="799.9999999999999" y="177.77777777777777"></rect><rect width="66.66666666666667" height="88.88888888888889" x="0" y="266.66666666666663"></rect><rect width="66.66666666666667" height="88.88888888888889" x="66.66666666666667" y="266.66666666666663"></rect><rect width="66.66666666666667" height="88.88888888888889" x="133.33333333333334" y="266.66666666666663"></rect><rect width="66.66666666666667" height="88.88888888888889" x="200" y="266.66666666666663"></rect><rect width="66.66666666666667" height="88.88888888888889" x="266.6666666666667" y="266.66666666666663"></rect><rect width="66.66666666666667" height="88.88888888888889" x="333.33333333333337" y="266.66666666666663"></rect><rect width="66.66666666666667" height="88.88888888888889" x="400.00000000000006" y="266.66666666666663"></rect><rect width="66.66666666666667" height="88.88888888888889" x="466.66666666666674" y="266.66666666666663"></rect><rect width="66.66666666666667" height="88.88888888888889" x="533.3333333333334" y="266.66666666666663"></rect><rect width="66.66666666666667" height="88.88888888888889" x="600" y="266.66666666666663"></rect><rect width="66.66666666666667" height="88.88888888888889" x="666.6666666666666" y="266.66666666666663"></rect><rect width="66.66666666666667" height="88.88888888888889" x="733.3333333333333" y="266.66666666666663"></rect><rect width="66.66666666666667" height="88.88888888888889" x="799.9999999999999" y="266.66666666666663"></rect><rect width="66.66666666666667" height="88.88888888888889" x="0" y="355.55555555555554"></rect><rect width="66.66666666666667" height="88.88888888888889" x="66.66666666666667" y="355.55555555555554"></rect><rect width="66.66666666666667" height="88.88888888888889" x="133.33333333333334" y="355.55555555555554"></rect><rect width="66.66666666666667" height="88.88888888888889" x="200" y="355.55555555555554"></rect><rect width="66.66666666666667" height="88.88888888888889" x="266.6666666666667" y="355.55555555555554"></rect><rect width="66.66666666666667" height="88.88888888888889" x="333.33333333333337" y="355.55555555555554"></rect><rect width="66.66666666666667" height="88.88888888888889" x="400.00000000000006" y="355.55555555555554"></rect><rect width="66.66666666666667" height="88.88888888888889" x="466.66666666666674" y="355.55555555555554"></rect><rect width="66.66666666666667" height="88.88888888888889" x="533.3333333333334" y="355.55555555555554"></rect><rect width="66.66666666666667" height="88.88888888888889" x="600" y="355.55555555555554"></rect><rect width="66.66666666666667" height="88.88888888888889" x="666.6666666666666" y="355.55555555555554"></rect><rect width="66.66666666666667" height="88.88888888888889" x="733.3333333333333" y="355.55555555555554"></rect><rect width="66.66666666666667" height="88.88888888888889" x="799.9999999999999" y="355.55555555555554"></rect><rect width="66.66666666666667" height="88.88888888888889" x="0" y="444.44444444444446"></rect><rect width="66.66666666666667" height="88.88888888888889" x="66.66666666666667" y="444.44444444444446"></rect><rect width="66.66666666666667" height="88.88888888888889" x="133.33333333333334" y="444.44444444444446"></rect><rect width="66.66666666666667" height="88.88888888888889" x="200" y="444.44444444444446"></rect><rect width="66.66666666666667" height="88.88888888888889" x="266.6666666666667" y="444.44444444444446"></rect><rect width="66.66666666666667" height="88.88888888888889" x="333.33333333333337" y="444.44444444444446"></rect><rect width="66.66666666666667" height="88.88888888888889" x="400.00000000000006" y="444.44444444444446"></rect><rect width="66.66666666666667" height="88.88888888888889" x="466.66666666666674" y="444.44444444444446"></rect><rect width="66.66666666666667" height="88.88888888888889" x="533.3333333333334" y="444.44444444444446"></rect><rect width="66.66666666666667" height="88.88888888888889" x="600" y="444.44444444444446"></rect><rect width="66.66666666666667" height="88.88888888888889" x="666.6666666666666" y="444.44444444444446"></rect><rect width="66.66666666666667" height="88.88888888888889" x="733.3333333333333" y="444.44444444444446"></rect><rect width="66.66666666666667" height="88.88888888888889" x="799.9999999999999" y="444.44444444444446"></rect><rect width="66.66666666666667" height="88.88888888888889" x="0" y="533.3333333333334"></rect><rect width="66.66666666666667" height="88.88888888888889" x="66.66666666666667" y="533.3333333333334"></rect><rect width="66.66666666666667" height="88.88888888888889" x="133.33333333333334" y="533.3333333333334"></rect><rect width="66.66666666666667" height="88.88888888888889" x="200" y="533.3333333333334"></rect><rect width="66.66666666666667" height="88.88888888888889" x="266.6666666666667" y="533.3333333333334"></rect><rect width="66.66666666666667" height="88.88888888888889" x="333.33333333333337" y="533.3333333333334"></rect><rect width="66.66666666666667" height="88.88888888888889" x="400.00000000000006" y="533.3333333333334"></rect><rect width="66.66666666666667" height="88.88888888888889" x="466.66666666666674" y="533.3333333333334"></rect><rect width="66.66666666666667" height="88.88888888888889" x="533.3333333333334" y="533.3333333333334"></rect><rect width="66.66666666666667" height="88.88888888888889" x="600" y="533.3333333333334"></rect><rect width="66.66666666666667" height="88.88888888888889" x="666.6666666666666" y="533.3333333333334"></rect><rect width="66.66666666666667" height="88.88888888888889" x="733.3333333333333" y="533.3333333333334"></rect><rect width="66.66666666666667" height="88.88888888888889" x="799.9999999999999" y="533.3333333333334"></rect><rect width="66.66666666666667" height="88.88888888888889" x="0" y="622.2222222222223"></rect><rect width="66.66666666666667" height="88.88888888888889" x="66.66666666666667" y="622.2222222222223"></rect><rect width="66.66666666666667" height="88.88888888888889" x="133.33333333333334" y="622.2222222222223"></rect><rect width="66.66666666666667" height="88.88888888888889" x="200" y="622.2222222222223"></rect><rect width="66.66666666666667" height="88.88888888888889" x="266.6666666666667" y="622.2222222222223"></rect><rect width="66.66666666666667" height="88.88888888888889" x="333.33333333333337" y="622.2222222222223"></rect><rect width="66.66666666666667" height="88.88888888888889" x="400.00000000000006" y="622.2222222222223"></rect><rect width="66.66666666666667" height="88.88888888888889" x="466.66666666666674" y="622.2222222222223"></rect><rect width="66.66666666666667" height="88.88888888888889" x="533.3333333333334" y="622.2222222222223"></rect><rect width="66.66666666666667" height="88.88888888888889" x="600" y="622.2222222222223"></rect><rect width="66.66666666666667" height="88.88888888888889" x="666.6666666666666" y="622.2222222222223"></rect><rect width="66.66666666666667" height="88.88888888888889" x="733.3333333333333" y="622.2222222222223"></rect><rect width="66.66666666666667" height="88.88888888888889" x="799.9999999999999" y="622.2222222222223"></rect><rect width="66.66666666666667" height="88.88888888888889" x="0" y="711.1111111111112"></rect><rect width="66.66666666666667" height="88.88888888888889" x="66.66666666666667" y="711.1111111111112"></rect><rect width="66.66666666666667" height="88.88888888888889" x="133.33333333333334" y="711.1111111111112"></rect><rect width="66.66666666666667" height="88.88888888888889" x="200" y="711.1111111111112"></rect><rect width="66.66666666666667" height="88.88888888888889" x="266.6666666666667" y="711.1111111111112"></rect><rect width="66.66666666666667" height="88.88888888888889" x="333.33333333333337" y="711.1111111111112"></rect><rect width="66.66666666666667" height="88.88888888888889" x="400.00000000000006" y="711.1111111111112"></rect><rect width="66.66666666666667" height="88.88888888888889" x="466.66666666666674" y="711.1111111111112"></rect><rect width="66.66666666666667" height="88.88888888888889" x="533.3333333333334" y="711.1111111111112"></rect><rect width="66.66666666666667" height="88.88888888888889" x="600" y="711.1111111111112"></rect><rect width="66.66666666666667" height="88.88888888888889" x="666.6666666666666" y="711.1111111111112"></rect><rect width="66.66666666666667" height="88.88888888888889" x="733.3333333333333" y="711.1111111111112"></rect><rect width="66.66666666666667" height="88.88888888888889" x="799.9999999999999" y="711.1111111111112"></rect><rect width="66.66666666666667" height="88.88888888888889" x="0" y="800.0000000000001"></rect><rect width="66.66666666666667" height="88.88888888888889" x="66.66666666666667" y="800.0000000000001"></rect><rect width="66.66666666666667" height="88.88888888888889" x="133.33333333333334" y="800.0000000000001"></rect><rect width="66.66666666666667" height="88.88888888888889" x="200" y="800.0000000000001"></rect><rect width="66.66666666666667" height="88.88888888888889" x="266.6666666666667" y="800.0000000000001"></rect><rect width="66.66666666666667" height="88.88888888888889" x="333.33333333333337" y="800.0000000000001"></rect><rect width="66.66666666666667" height="88.88888888888889" x="400.00000000000006" y="800.0000000000001"></rect><rect width="66.66666666666667" height="88.88888888888889" x="466.66666666666674" y="800.0000000000001"></rect><rect width="66.66666666666667" height="88.88888888888889" x="533.3333333333334" y="800.0000000000001"></rect><rect width="66.66666666666667" height="88.88888888888889" x="600" y="800.0000000000001"></rect><rect width="66.66666666666667" height="88.88888888888889" x="666.6666666666666" y="800.0000000000001"></rect><rect width="66.66666666666667" height="88.88888888888889" x="733.3333333333333" y="800.0000000000001"></rect><rect width="66.66666666666667" height="88.88888888888889" x="799.9999999999999" y="800.0000000000001"></rect></g></svg>