<svg xmlns="http://www.w3.org/2000/svg" version="1.1" xmlns:xlink="http://www.w3.org/1999/xlink" xmlns:svgjs="http://svgjs.dev/svgjs" viewBox="0 0 800 800" opacity="0.34" width="800" height="800"><g stroke-width="1" stroke="hsla(0, 0%, 96%, 1.00)" fill="none"><rect width="47.05882352941177" height="53.333333333333336" x="0" y="0"></rect><rect width="47.05882352941177" height="53.333333333333336" x="47.05882352941177" y="0"></rect><rect width="47.05882352941177" height="53.333333333333336" x="94.11764705882354" y="0"></rect><rect width="47.05882352941177" height="53.333333333333336" x="141.1764705882353" y="0"></rect><rect width="47.05882352941177" height="53.333333333333336" x="188.23529411764707" y="0"></rect><rect width="47.05882352941177" height="53.333333333333336" x="235.29411764705884" y="0"></rect><rect width="47.05882352941177" height="53.333333333333336" x="282.3529411764706" y="0"></rect><rect width="47.05882352941177" height="53.333333333333336" x="329.4117647058824" y="0"></rect><rect width="47.05882352941177" height="53.333333333333336" x="376.47058823529414" y="0"></rect><rect width="47.05882352941177" height="53.333333333333336" x="423.5294117647059" y="0"></rect><rect width="47.05882352941177" height="53.333333333333336" x="470.5882352941177" y="0"></rect><rect width="47.05882352941177" height="53.333333333333336" x="517.6470588235295" y="0"></rect><rect width="47.05882352941177" height="53.333333333333336" x="564.7058823529412" y="0"></rect><rect width="47.05882352941177" height="53.333333333333336" x="611.7647058823529" y="0"></rect><rect width="47.05882352941177" height="53.333333333333336" x="658.8235294117646" y="0"></rect><rect width="47.05882352941177" height="53.333333333333336" x="705.8823529411764" y="0"></rect><rect width="47.05882352941177" height="53.333333333333336" x="752.9411764705881" y="0"></rect><rect width="47.05882352941177" height="53.333333333333336" x="799.9999999999998" y="0"></rect><rect width="47.05882352941177" height="53.333333333333336" x="0" y="53.333333333333336"></rect><rect width="47.05882352941177" height="53.333333333333336" x="47.05882352941177" y="53.333333333333336"></rect><rect width="47.05882352941177" height="53.333333333333336" x="94.11764705882354" y="53.333333333333336"></rect><rect width="47.05882352941177" height="53.333333333333336" x="141.1764705882353" y="53.333333333333336"></rect><rect width="47.05882352941177" height="53.333333333333336" x="188.23529411764707" y="53.333333333333336"></rect><rect width="47.05882352941177" height="53.333333333333336" x="235.29411764705884" y="53.333333333333336"></rect><rect width="47.05882352941177" height="53.333333333333336" x="282.3529411764706" y="53.333333333333336"></rect><rect width="47.05882352941177" height="53.333333333333336" x="329.4117647058824" y="53.333333333333336"></rect><rect width="47.05882352941177" height="53.333333333333336" x="376.47058823529414" y="53.333333333333336"></rect><rect width="47.05882352941177" height="53.333333333333336" x="423.5294117647059" y="53.333333333333336"></rect><rect width="47.05882352941177" height="53.333333333333336" x="470.5882352941177" y="53.333333333333336"></rect><rect width="47.05882352941177" height="53.333333333333336" x="517.6470588235295" y="53.333333333333336"></rect><rect width="47.05882352941177" height="53.333333333333336" x="564.7058823529412" y="53.333333333333336"></rect><rect width="47.05882352941177" height="53.333333333333336" x="611.7647058823529" y="53.333333333333336"></rect><rect width="47.05882352941177" height="53.333333333333336" x="658.8235294117646" y="53.333333333333336"></rect><rect width="47.05882352941177" height="53.333333333333336" x="705.8823529411764" y="53.333333333333336"></rect><rect width="47.05882352941177" height="53.333333333333336" x="752.9411764705881" y="53.333333333333336"></rect><rect width="47.05882352941177" height="53.333333333333336" x="799.9999999999998" y="53.333333333333336"></rect><rect width="47.05882352941177" height="53.333333333333336" x="0" y="106.66666666666667"></rect><rect width="47.05882352941177" height="53.333333333333336" x="47.05882352941177" y="106.66666666666667"></rect><rect width="47.05882352941177" height="53.333333333333336" x="94.11764705882354" y="106.66666666666667"></rect><rect width="47.05882352941177" height="53.333333333333336" x="141.1764705882353" y="106.66666666666667"></rect><rect width="47.05882352941177" height="53.333333333333336" x="188.23529411764707" y="106.66666666666667"></rect><rect width="47.05882352941177" height="53.333333333333336" x="235.29411764705884" y="106.66666666666667"></rect><rect width="47.05882352941177" height="53.333333333333336" x="282.3529411764706" y="106.66666666666667"></rect><rect width="47.05882352941177" height="53.333333333333336" x="329.4117647058824" y="106.66666666666667"></rect><rect width="47.05882352941177" height="53.333333333333336" x="376.47058823529414" y="106.66666666666667"></rect><rect width="47.05882352941177" height="53.333333333333336" x="423.5294117647059" y="106.66666666666667"></rect><rect width="47.05882352941177" height="53.333333333333336" x="470.5882352941177" y="106.66666666666667"></rect><rect width="47.05882352941177" height="53.333333333333336" x="517.6470588235295" y="106.66666666666667"></rect><rect width="47.05882352941177" height="53.333333333333336" x="564.7058823529412" y="106.66666666666667"></rect><rect width="47.05882352941177" height="53.333333333333336" x="611.7647058823529" y="106.66666666666667"></rect><rect width="47.05882352941177" height="53.333333333333336" x="658.8235294117646" y="106.66666666666667"></rect><rect width="47.05882352941177" height="53.333333333333336" x="705.8823529411764" y="106.66666666666667"></rect><rect width="47.05882352941177" height="53.333333333333336" x="752.9411764705881" y="106.66666666666667"></rect><rect width="47.05882352941177" height="53.333333333333336" x="799.9999999999998" y="106.66666666666667"></rect><rect width="47.05882352941177" height="53.333333333333336" x="0" y="160"></rect><rect width="47.05882352941177" height="53.333333333333336" x="47.05882352941177" y="160"></rect><rect width="47.05882352941177" height="53.333333333333336" x="94.11764705882354" y="160"></rect><rect width="47.05882352941177" height="53.333333333333336" x="141.1764705882353" y="160"></rect><rect width="47.05882352941177" height="53.333333333333336" x="188.23529411764707" y="160"></rect><rect width="47.05882352941177" height="53.333333333333336" x="235.29411764705884" y="160"></rect><rect width="47.05882352941177" height="53.333333333333336" x="282.3529411764706" y="160"></rect><rect width="47.05882352941177" height="53.333333333333336" x="329.4117647058824" y="160"></rect><rect width="47.05882352941177" height="53.333333333333336" x="376.47058823529414" y="160"></rect><rect width="47.05882352941177" height="53.333333333333336" x="423.5294117647059" y="160"></rect><rect width="47.05882352941177" height="53.333333333333336" x="470.5882352941177" y="160"></rect><rect width="47.05882352941177" height="53.333333333333336" x="517.6470588235295" y="160"></rect><rect width="47.05882352941177" height="53.333333333333336" x="564.7058823529412" y="160"></rect><rect width="47.05882352941177" height="53.333333333333336" x="611.7647058823529" y="160"></rect><rect width="47.05882352941177" height="53.333333333333336" x="658.8235294117646" y="160"></rect><rect width="47.05882352941177" height="53.333333333333336" x="705.8823529411764" y="160"></rect><rect width="47.05882352941177" height="53.333333333333336" x="752.9411764705881" y="160"></rect><rect width="47.05882352941177" height="53.333333333333336" x="799.9999999999998" y="160"></rect><rect width="47.05882352941177" height="53.333333333333336" x="0" y="213.33333333333334"></rect><rect width="47.05882352941177" height="53.333333333333336" x="47.05882352941177" y="213.33333333333334"></rect><rect width="47.05882352941177" height="53.333333333333336" x="94.11764705882354" y="213.33333333333334"></rect><rect width="47.05882352941177" height="53.333333333333336" x="141.1764705882353" y="213.33333333333334"></rect><rect width="47.05882352941177" height="53.333333333333336" x="188.23529411764707" y="213.33333333333334"></rect><rect width="47.05882352941177" height="53.333333333333336" x="235.29411764705884" y="213.33333333333334"></rect><rect width="47.05882352941177" height="53.333333333333336" x="282.3529411764706" y="213.33333333333334"></rect><rect width="47.05882352941177" height="53.333333333333336" x="329.4117647058824" y="213.33333333333334"></rect><rect width="47.05882352941177" height="53.333333333333336" x="376.47058823529414" y="213.33333333333334"></rect><rect width="47.05882352941177" height="53.333333333333336" x="423.5294117647059" y="213.33333333333334"></rect><rect width="47.05882352941177" height="53.333333333333336" x="470.5882352941177" y="213.33333333333334"></rect><rect width="47.05882352941177" height="53.333333333333336" x="517.6470588235295" y="213.33333333333334"></rect><rect width="47.05882352941177" height="53.333333333333336" x="564.7058823529412" y="213.33333333333334"></rect><rect width="47.05882352941177" height="53.333333333333336" x="611.7647058823529" y="213.33333333333334"></rect><rect width="47.05882352941177" height="53.333333333333336" x="658.8235294117646" y="213.33333333333334"></rect><rect width="47.05882352941177" height="53.333333333333336" x="705.8823529411764" y="213.33333333333334"></rect><rect width="47.05882352941177" height="53.333333333333336" x="752.9411764705881" y="213.33333333333334"></rect><rect width="47.05882352941177" height="53.333333333333336" x="799.9999999999998" y="213.33333333333334"></rect><rect width="47.05882352941177" height="53.333333333333336" x="0" y="266.6666666666667"></rect><rect width="47.05882352941177" height="53.333333333333336" x="47.05882352941177" y="266.6666666666667"></rect><rect width="47.05882352941177" height="53.333333333333336" x="94.11764705882354" y="266.6666666666667"></rect><rect width="47.05882352941177" height="53.333333333333336" x="141.1764705882353" y="266.6666666666667"></rect><rect width="47.05882352941177" height="53.333333333333336" x="188.23529411764707" y="266.6666666666667"></rect><rect width="47.05882352941177" height="53.333333333333336" x="235.29411764705884" y="266.6666666666667"></rect><rect width="47.05882352941177" height="53.333333333333336" x="282.3529411764706" y="266.6666666666667"></rect><rect width="47.05882352941177" height="53.333333333333336" x="329.4117647058824" y="266.6666666666667"></rect><rect width="47.05882352941177" height="53.333333333333336" x="376.47058823529414" y="266.6666666666667"></rect><rect width="47.05882352941177" height="53.333333333333336" x="423.5294117647059" y="266.6666666666667"></rect><rect width="47.05882352941177" height="53.333333333333336" x="470.5882352941177" y="266.6666666666667"></rect><rect width="47.05882352941177" height="53.333333333333336" x="517.6470588235295" y="266.6666666666667"></rect><rect width="47.05882352941177" height="53.333333333333336" x="564.7058823529412" y="266.6666666666667"></rect><rect width="47.05882352941177" height="53.333333333333336" x="611.7647058823529" y="266.6666666666667"></rect><rect width="47.05882352941177" height="53.333333333333336" x="658.8235294117646" y="266.6666666666667"></rect><rect width="47.05882352941177" height="53.333333333333336" x="705.8823529411764" y="266.6666666666667"></rect><rect width="47.05882352941177" height="53.333333333333336" x="752.9411764705881" y="266.6666666666667"></rect><rect width="47.05882352941177" height="53.333333333333336" x="799.9999999999998" y="266.6666666666667"></rect><rect width="47.05882352941177" height="53.333333333333336" x="0" y="320"></rect><rect width="47.05882352941177" height="53.333333333333336" x="47.05882352941177" y="320"></rect><rect width="47.05882352941177" height="53.333333333333336" x="94.11764705882354" y="320"></rect><rect width="47.05882352941177" height="53.333333333333336" x="141.1764705882353" y="320"></rect><rect width="47.05882352941177" height="53.333333333333336" x="188.23529411764707" y="320"></rect><rect width="47.05882352941177" height="53.333333333333336" x="235.29411764705884" y="320"></rect><rect width="47.05882352941177" height="53.333333333333336" x="282.3529411764706" y="320"></rect><rect width="47.05882352941177" height="53.333333333333336" x="329.4117647058824" y="320"></rect><rect width="47.05882352941177" height="53.333333333333336" x="376.47058823529414" y="320"></rect><rect width="47.05882352941177" height="53.333333333333336" x="423.5294117647059" y="320"></rect><rect width="47.05882352941177" height="53.333333333333336" x="470.5882352941177" y="320"></rect><rect width="47.05882352941177" height="53.333333333333336" x="517.6470588235295" y="320"></rect><rect width="47.05882352941177" height="53.333333333333336" x="564.7058823529412" y="320"></rect><rect width="47.05882352941177" height="53.333333333333336" x="611.7647058823529" y="320"></rect><rect width="47.05882352941177" height="53.333333333333336" x="658.8235294117646" y="320"></rect><rect width="47.05882352941177" height="53.333333333333336" x="705.8823529411764" y="320"></rect><rect width="47.05882352941177" height="53.333333333333336" x="752.9411764705881" y="320"></rect><rect width="47.05882352941177" height="53.333333333333336" x="799.9999999999998" y="320"></rect><rect width="47.05882352941177" height="53.333333333333336" x="0" y="373.3333333333333"></rect><rect width="47.05882352941177" height="53.333333333333336" x="47.05882352941177" y="373.3333333333333"></rect><rect width="47.05882352941177" height="53.333333333333336" x="94.11764705882354" y="373.3333333333333"></rect><rect width="47.05882352941177" height="53.333333333333336" x="141.1764705882353" y="373.3333333333333"></rect><rect width="47.05882352941177" height="53.333333333333336" x="188.23529411764707" y="373.3333333333333"></rect><rect width="47.05882352941177" height="53.333333333333336" x="235.29411764705884" y="373.3333333333333"></rect><rect width="47.05882352941177" height="53.333333333333336" x="282.3529411764706" y="373.3333333333333"></rect><rect width="47.05882352941177" height="53.333333333333336" x="329.4117647058824" y="373.3333333333333"></rect><rect width="47.05882352941177" height="53.333333333333336" x="376.47058823529414" y="373.3333333333333"></rect><rect width="47.05882352941177" height="53.333333333333336" x="423.5294117647059" y="373.3333333333333"></rect><rect width="47.05882352941177" height="53.333333333333336" x="470.5882352941177" y="373.3333333333333"></rect><rect width="47.05882352941177" height="53.333333333333336" x="517.6470588235295" y="373.3333333333333"></rect><rect width="47.05882352941177" height="53.333333333333336" x="564.7058823529412" y="373.3333333333333"></rect><rect width="47.05882352941177" height="53.333333333333336" x="611.7647058823529" y="373.3333333333333"></rect><rect width="47.05882352941177" height="53.333333333333336" x="658.8235294117646" y="373.3333333333333"></rect><rect width="47.05882352941177" height="53.333333333333336" x="705.8823529411764" y="373.3333333333333"></rect><rect width="47.05882352941177" height="53.333333333333336" x="752.9411764705881" y="373.3333333333333"></rect><rect width="47.05882352941177" height="53.333333333333336" x="799.9999999999998" y="373.3333333333333"></rect><rect width="47.05882352941177" height="53.333333333333336" x="0" y="426.66666666666663"></rect><rect width="47.05882352941177" height="53.333333333333336" x="47.05882352941177" y="426.66666666666663"></rect><rect width="47.05882352941177" height="53.333333333333336" x="94.11764705882354" y="426.66666666666663"></rect><rect width="47.05882352941177" height="53.333333333333336" x="141.1764705882353" y="426.66666666666663"></rect><rect width="47.05882352941177" height="53.333333333333336" x="188.23529411764707" y="426.66666666666663"></rect><rect width="47.05882352941177" height="53.333333333333336" x="235.29411764705884" y="426.66666666666663"></rect><rect width="47.05882352941177" height="53.333333333333336" x="282.3529411764706" y="426.66666666666663"></rect><rect width="47.05882352941177" height="53.333333333333336" x="329.4117647058824" y="426.66666666666663"></rect><rect width="47.05882352941177" height="53.333333333333336" x="376.47058823529414" y="426.66666666666663"></rect><rect width="47.05882352941177" height="53.333333333333336" x="423.5294117647059" y="426.66666666666663"></rect><rect width="47.05882352941177" height="53.333333333333336" x="470.5882352941177" y="426.66666666666663"></rect><rect width="47.05882352941177" height="53.333333333333336" x="517.6470588235295" y="426.66666666666663"></rect><rect width="47.05882352941177" height="53.333333333333336" x="564.7058823529412" y="426.66666666666663"></rect><rect width="47.05882352941177" height="53.333333333333336" x="611.7647058823529" y="426.66666666666663"></rect><rect width="47.05882352941177" height="53.333333333333336" x="658.8235294117646" y="426.66666666666663"></rect><rect width="47.05882352941177" height="53.333333333333336" x="705.8823529411764" y="426.66666666666663"></rect><rect width="47.05882352941177" height="53.333333333333336" x="752.9411764705881" y="426.66666666666663"></rect><rect width="47.05882352941177" height="53.333333333333336" x="799.9999999999998" y="426.66666666666663"></rect><rect width="47.05882352941177" height="53.333333333333336" x="0" y="479.99999999999994"></rect><rect width="47.05882352941177" height="53.333333333333336" x="47.05882352941177" y="479.99999999999994"></rect><rect width="47.05882352941177" height="53.333333333333336" x="94.11764705882354" y="479.99999999999994"></rect><rect width="47.05882352941177" height="53.333333333333336" x="141.1764705882353" y="479.99999999999994"></rect><rect width="47.05882352941177" height="53.333333333333336" x="188.23529411764707" y="479.99999999999994"></rect><rect width="47.05882352941177" height="53.333333333333336" x="235.29411764705884" y="479.99999999999994"></rect><rect width="47.05882352941177" height="53.333333333333336" x="282.3529411764706" y="479.99999999999994"></rect><rect width="47.05882352941177" height="53.333333333333336" x="329.4117647058824" y="479.99999999999994"></rect><rect width="47.05882352941177" height="53.333333333333336" x="376.47058823529414" y="479.99999999999994"></rect><rect width="47.05882352941177" height="53.333333333333336" x="423.5294117647059" y="479.99999999999994"></rect><rect width="47.05882352941177" height="53.333333333333336" x="470.5882352941177" y="479.99999999999994"></rect><rect width="47.05882352941177" height="53.333333333333336" x="517.6470588235295" y="479.99999999999994"></rect><rect width="47.05882352941177" height="53.333333333333336" x="564.7058823529412" y="479.99999999999994"></rect><rect width="47.05882352941177" height="53.333333333333336" x="611.7647058823529" y="479.99999999999994"></rect><rect width="47.05882352941177" height="53.333333333333336" x="658.8235294117646" y="479.99999999999994"></rect><rect width="47.05882352941177" height="53.333333333333336" x="705.8823529411764" y="479.99999999999994"></rect><rect width="47.05882352941177" height="53.333333333333336" x="752.9411764705881" y="479.99999999999994"></rect><rect width="47.05882352941177" height="53.333333333333336" x="799.9999999999998" y="479.99999999999994"></rect><rect width="47.05882352941177" height="53.333333333333336" x="0" y="533.3333333333333"></rect><rect width="47.05882352941177" height="53.333333333333336" x="47.05882352941177" y="533.3333333333333"></rect><rect width="47.05882352941177" height="53.333333333333336" x="94.11764705882354" y="533.3333333333333"></rect><rect width="47.05882352941177" height="53.333333333333336" x="141.1764705882353" y="533.3333333333333"></rect><rect width="47.05882352941177" height="53.333333333333336" x="188.23529411764707" y="533.3333333333333"></rect><rect width="47.05882352941177" height="53.333333333333336" x="235.29411764705884" y="533.3333333333333"></rect><rect width="47.05882352941177" height="53.333333333333336" x="282.3529411764706" y="533.3333333333333"></rect><rect width="47.05882352941177" height="53.333333333333336" x="329.4117647058824" y="533.3333333333333"></rect><rect width="47.05882352941177" height="53.333333333333336" x="376.47058823529414" y="533.3333333333333"></rect><rect width="47.05882352941177" height="53.333333333333336" x="423.5294117647059" y="533.3333333333333"></rect><rect width="47.05882352941177" height="53.333333333333336" x="470.5882352941177" y="533.3333333333333"></rect><rect width="47.05882352941177" height="53.333333333333336" x="517.6470588235295" y="533.3333333333333"></rect><rect width="47.05882352941177" height="53.333333333333336" x="564.7058823529412" y="533.3333333333333"></rect><rect width="47.05882352941177" height="53.333333333333336" x="611.7647058823529" y="533.3333333333333"></rect><rect width="47.05882352941177" height="53.333333333333336" x="658.8235294117646" y="533.3333333333333"></rect><rect width="47.05882352941177" height="53.333333333333336" x="705.8823529411764" y="533.3333333333333"></rect><rect width="47.05882352941177" height="53.333333333333336" x="752.9411764705881" y="533.3333333333333"></rect><rect width="47.05882352941177" height="53.333333333333336" x="799.9999999999998" y="533.3333333333333"></rect><rect width="47.05882352941177" height="53.333333333333336" x="0" y="586.6666666666666"></rect><rect width="47.05882352941177" height="53.333333333333336" x="47.05882352941177" y="586.6666666666666"></rect><rect width="47.05882352941177" height="53.333333333333336" x="94.11764705882354" y="586.6666666666666"></rect><rect width="47.05882352941177" height="53.333333333333336" x="141.1764705882353" y="586.6666666666666"></rect><rect width="47.05882352941177" height="53.333333333333336" x="188.23529411764707" y="586.6666666666666"></rect><rect width="47.05882352941177" height="53.333333333333336" x="235.29411764705884" y="586.6666666666666"></rect><rect width="47.05882352941177" height="53.333333333333336" x="282.3529411764706" y="586.6666666666666"></rect><rect width="47.05882352941177" height="53.333333333333336" x="329.4117647058824" y="586.6666666666666"></rect><rect width="47.05882352941177" height="53.333333333333336" x="376.47058823529414" y="586.6666666666666"></rect><rect width="47.05882352941177" height="53.333333333333336" x="423.5294117647059" y="586.6666666666666"></rect><rect width="47.05882352941177" height="53.333333333333336" x="470.5882352941177" y="586.6666666666666"></rect><rect width="47.05882352941177" height="53.333333333333336" x="517.6470588235295" y="586.6666666666666"></rect><rect width="47.05882352941177" height="53.333333333333336" x="564.7058823529412" y="586.6666666666666"></rect><rect width="47.05882352941177" height="53.333333333333336" x="611.7647058823529" y="586.6666666666666"></rect><rect width="47.05882352941177" height="53.333333333333336" x="658.8235294117646" y="586.6666666666666"></rect><rect width="47.05882352941177" height="53.333333333333336" x="705.8823529411764" y="586.6666666666666"></rect><rect width="47.05882352941177" height="53.333333333333336" x="752.9411764705881" y="586.6666666666666"></rect><rect width="47.05882352941177" height="53.333333333333336" x="799.9999999999998" y="586.6666666666666"></rect><rect width="47.05882352941177" height="53.333333333333336" x="0" y="640"></rect><rect width="47.05882352941177" height="53.333333333333336" x="47.05882352941177" y="640"></rect><rect width="47.05882352941177" height="53.333333333333336" x="94.11764705882354" y="640"></rect><rect width="47.05882352941177" height="53.333333333333336" x="141.1764705882353" y="640"></rect><rect width="47.05882352941177" height="53.333333333333336" x="188.23529411764707" y="640"></rect><rect width="47.05882352941177" height="53.333333333333336" x="235.29411764705884" y="640"></rect><rect width="47.05882352941177" height="53.333333333333336" x="282.3529411764706" y="640"></rect><rect width="47.05882352941177" height="53.333333333333336" x="329.4117647058824" y="640"></rect><rect width="47.05882352941177" height="53.333333333333336" x="376.47058823529414" y="640"></rect><rect width="47.05882352941177" height="53.333333333333336" x="423.5294117647059" y="640"></rect><rect width="47.05882352941177" height="53.333333333333336" x="470.5882352941177" y="640"></rect><rect width="47.05882352941177" height="53.333333333333336" x="517.6470588235295" y="640"></rect><rect width="47.05882352941177" height="53.333333333333336" x="564.7058823529412" y="640"></rect><rect width="47.05882352941177" height="53.333333333333336" x="611.7647058823529" y="640"></rect><rect width="47.05882352941177" height="53.333333333333336" x="658.8235294117646" y="640"></rect><rect width="47.05882352941177" height="53.333333333333336" x="705.8823529411764" y="640"></rect><rect width="47.05882352941177" height="53.333333333333336" x="752.9411764705881" y="640"></rect><rect width="47.05882352941177" height="53.333333333333336" x="799.9999999999998" y="640"></rect><rect width="47.05882352941177" height="53.333333333333336" x="0" y="693.3333333333334"></rect><rect width="47.05882352941177" height="53.333333333333336" x="47.05882352941177" y="693.3333333333334"></rect><rect width="47.05882352941177" height="53.333333333333336" x="94.11764705882354" y="693.3333333333334"></rect><rect width="47.05882352941177" height="53.333333333333336" x="141.1764705882353" y="693.3333333333334"></rect><rect width="47.05882352941177" height="53.333333333333336" x="188.23529411764707" y="693.3333333333334"></rect><rect width="47.05882352941177" height="53.333333333333336" x="235.29411764705884" y="693.3333333333334"></rect><rect width="47.05882352941177" height="53.333333333333336" x="282.3529411764706" y="693.3333333333334"></rect><rect width="47.05882352941177" height="53.333333333333336" x="329.4117647058824" y="693.3333333333334"></rect><rect width="47.05882352941177" height="53.333333333333336" x="376.47058823529414" y="693.3333333333334"></rect><rect width="47.05882352941177" height="53.333333333333336" x="423.5294117647059" y="693.3333333333334"></rect><rect width="47.05882352941177" height="53.333333333333336" x="470.5882352941177" y="693.3333333333334"></rect><rect width="47.05882352941177" height="53.333333333333336" x="517.6470588235295" y="693.3333333333334"></rect><rect width="47.05882352941177" height="53.333333333333336" x="564.7058823529412" y="693.3333333333334"></rect><rect width="47.05882352941177" height="53.333333333333336" x="611.7647058823529" y="693.3333333333334"></rect><rect width="47.05882352941177" height="53.333333333333336" x="658.8235294117646" y="693.3333333333334"></rect><rect width="47.05882352941177" height="53.333333333333336" x="705.8823529411764" y="693.3333333333334"></rect><rect width="47.05882352941177" height="53.333333333333336" x="752.9411764705881" y="693.3333333333334"></rect><rect width="47.05882352941177" height="53.333333333333336" x="799.9999999999998" y="693.3333333333334"></rect><rect width="47.05882352941177" height="53.333333333333336" x="0" y="746.6666666666667"></rect><rect width="47.05882352941177" height="53.333333333333336" x="47.05882352941177" y="746.6666666666667"></rect><rect width="47.05882352941177" height="53.333333333333336" x="94.11764705882354" y="746.6666666666667"></rect><rect width="47.05882352941177" height="53.333333333333336" x="141.1764705882353" y="746.6666666666667"></rect><rect width="47.05882352941177" height="53.333333333333336" x="188.23529411764707" y="746.6666666666667"></rect><rect width="47.05882352941177" height="53.333333333333336" x="235.29411764705884" y="746.6666666666667"></rect><rect width="47.05882352941177" height="53.333333333333336" x="282.3529411764706" y="746.6666666666667"></rect><rect width="47.05882352941177" height="53.333333333333336" x="329.4117647058824" y="746.6666666666667"></rect><rect width="47.05882352941177" height="53.333333333333336" x="376.47058823529414" y="746.6666666666667"></rect><rect width="47.05882352941177" height="53.333333333333336" x="423.5294117647059" y="746.6666666666667"></rect><rect width="47.05882352941177" height="53.333333333333336" x="470.5882352941177" y="746.6666666666667"></rect><rect width="47.05882352941177" height="53.333333333333336" x="517.6470588235295" y="746.6666666666667"></rect><rect width="47.05882352941177" height="53.333333333333336" x="564.7058823529412" y="746.6666666666667"></rect><rect width="47.05882352941177" height="53.333333333333336" x="611.7647058823529" y="746.6666666666667"></rect><rect width="47.05882352941177" height="53.333333333333336" x="658.8235294117646" y="746.6666666666667"></rect><rect width="47.05882352941177" height="53.333333333333336" x="705.8823529411764" y="746.6666666666667"></rect><rect width="47.05882352941177" height="53.333333333333336" x="752.9411764705881" y="746.6666666666667"></rect><rect width="47.05882352941177" height="53.333333333333336" x="799.9999999999998" y="746.6666666666667"></rect><rect width="47.05882352941177" height="53.333333333333336" x="0" y="800.0000000000001"></rect><rect width="47.05882352941177" height="53.333333333333336" x="47.05882352941177" y="800.0000000000001"></rect><rect width="47.05882352941177" height="53.333333333333336" x="94.11764705882354" y="800.0000000000001"></rect><rect width="47.05882352941177" height="53.333333333333336" x="141.1764705882353" y="800.0000000000001"></rect><rect width="47.05882352941177" height="53.333333333333336" x="188.23529411764707" y="800.0000000000001"></rect><rect width="47.05882352941177" height="53.333333333333336" x="235.29411764705884" y="800.0000000000001"></rect><rect width="47.05882352941177" height="53.333333333333336" x="282.3529411764706" y="800.0000000000001"></rect><rect width="47.05882352941177" height="53.333333333333336" x="329.4117647058824" y="800.0000000000001"></rect><rect width="47.05882352941177" height="53.333333333333336" x="376.47058823529414" y="800.0000000000001"></rect><rect width="47.05882352941177" height="53.333333333333336" x="423.5294117647059" y="800.0000000000001"></rect><rect width="47.05882352941177" height="53.333333333333336" x="470.5882352941177" y="800.0000000000001"></rect><rect width="47.05882352941177" height="53.333333333333336" x="517.6470588235295" y="800.0000000000001"></rect><rect width="47.05882352941177" height="53.333333333333336" x="564.7058823529412" y="800.0000000000001"></rect><rect width="47.05882352941177" height="53.333333333333336" x="611.7647058823529" y="800.0000000000001"></rect><rect width="47.05882352941177" height="53.333333333333336" x="658.8235294117646" y="800.0000000000001"></rect><rect width="47.05882352941177" height="53.333333333333336" x="705.8823529411764" y="800.0000000000001"></rect><rect width="47.05882352941177" height="53.333333333333336" x="752.9411764705881" y="800.0000000000001"></rect><rect width="47.05882352941177" height="53.333333333333336" x="799.9999999999998" y="800.0000000000001"></rect></g></svg>