<svg xmlns="http://www.w3.org/2000/svg" version="1.1" xmlns:xlink="http://www.w3.org/1999/xlink" xmlns:svgjs="http://svgjs.dev/svgjs" viewBox="0 0 800 800" opacity="0.12" width="800" height="800"><g stroke-width="0.5" stroke="hsla(0, 0%, 96%, 1.00)" fill="none"><line x1="0" y1="0" x2="100" y2="100"></line><line x1="100" y1="0" x2="200" y2="100"></line><line x1="200" y1="0" x2="300" y2="100"></line><line x1="300" y1="0" x2="400" y2="100"></line><line x1="400" y1="0" x2="500" y2="100"></line><line x1="500" y1="0" x2="600" y2="100"></line><line x1="600" y1="0" x2="700" y2="100"></line><line x1="700" y1="0" x2="800" y2="100"></line><line x1="800" y1="0" x2="900" y2="100"></line><line x1="0" y1="53.333333333333336" x2="100" y2="153.33333333333334"></line><line x1="100" y1="53.333333333333336" x2="200" y2="153.33333333333334"></line><line x1="200" y1="53.333333333333336" x2="300" y2="153.33333333333334"></line><line x1="300" y1="53.333333333333336" x2="400" y2="153.33333333333334"></line><line x1="400" y1="53.333333333333336" x2="500" y2="153.33333333333334"></line><line x1="500" y1="53.333333333333336" x2="600" y2="153.33333333333334"></line><line x1="600" y1="53.333333333333336" x2="700" y2="153.33333333333334"></line><line x1="700" y1="53.333333333333336" x2="800" y2="153.33333333333334"></line><line x1="800" y1="53.333333333333336" x2="900" y2="153.33333333333334"></line><line x1="0" y1="106.66666666666667" x2="100" y2="206.66666666666669"></line><line x1="100" y1="106.66666666666667" x2="200" y2="206.66666666666669"></line><line x1="200" y1="106.66666666666667" x2="300" y2="206.66666666666669"></line><line x1="300" y1="106.66666666666667" x2="400" y2="206.66666666666669"></line><line x1="400" y1="106.66666666666667" x2="500" y2="206.66666666666669"></line><line x1="500" y1="106.66666666666667" x2="600" y2="206.66666666666669"></line><line x1="600" y1="106.66666666666667" x2="700" y2="206.66666666666669"></line><line x1="700" y1="106.66666666666667" x2="800" y2="206.66666666666669"></line><line x1="800" y1="106.66666666666667" x2="900" y2="206.66666666666669"></line><line x1="0" y1="160" x2="100" y2="260"></line><line x1="100" y1="160" x2="200" y2="260"></line><line x1="200" y1="160" x2="300" y2="260"></line><line x1="300" y1="160" x2="400" y2="260"></line><line x1="400" y1="160" x2="500" y2="260"></line><line x1="500" y1="160" x2="600" y2="260"></line><line x1="600" y1="160" x2="700" y2="260"></line><line x1="700" y1="160" x2="800" y2="260"></line><line x1="800" y1="160" x2="900" y2="260"></line><line x1="0" y1="213.33333333333334" x2="100" y2="313.33333333333337"></line><line x1="100" y1="213.33333333333334" x2="200" y2="313.33333333333337"></line><line x1="200" y1="213.33333333333334" x2="300" y2="313.33333333333337"></line><line x1="300" y1="213.33333333333334" x2="400" y2="313.33333333333337"></line><line x1="400" y1="213.33333333333334" x2="500" y2="313.33333333333337"></line><line x1="500" y1="213.33333333333334" x2="600" y2="313.33333333333337"></line><line x1="600" y1="213.33333333333334" x2="700" y2="313.33333333333337"></line><line x1="700" y1="213.33333333333334" x2="800" y2="313.33333333333337"></line><line x1="800" y1="213.33333333333334" x2="900" y2="313.33333333333337"></line><line x1="0" y1="266.6666666666667" x2="100" y2="366.6666666666667"></line><line x1="100" y1="266.6666666666667" x2="200" y2="366.6666666666667"></line><line x1="200" y1="266.6666666666667" x2="300" y2="366.6666666666667"></line><line x1="300" y1="266.6666666666667" x2="400" y2="366.6666666666667"></line><line x1="400" y1="266.6666666666667" x2="500" y2="366.6666666666667"></line><line x1="500" y1="266.6666666666667" x2="600" y2="366.6666666666667"></line><line x1="600" y1="266.6666666666667" x2="700" y2="366.6666666666667"></line><line x1="700" y1="266.6666666666667" x2="800" y2="366.6666666666667"></line><line x1="800" y1="266.6666666666667" x2="900" y2="366.6666666666667"></line><line x1="0" y1="320" x2="100" y2="420"></line><line x1="100" y1="320" x2="200" y2="420"></line><line x1="200" y1="320" x2="300" y2="420"></line><line x1="300" y1="320" x2="400" y2="420"></line><line x1="400" y1="320" x2="500" y2="420"></line><line x1="500" y1="320" x2="600" y2="420"></line><line x1="600" y1="320" x2="700" y2="420"></line><line x1="700" y1="320" x2="800" y2="420"></line><line x1="800" y1="320" x2="900" y2="420"></line><line x1="0" y1="373.3333333333333" x2="100" y2="473.3333333333333"></line><line x1="100" y1="373.3333333333333" x2="200" y2="473.3333333333333"></line><line x1="200" y1="373.3333333333333" x2="300" y2="473.3333333333333"></line><line x1="300" y1="373.3333333333333" x2="400" y2="473.3333333333333"></line><line x1="400" y1="373.3333333333333" x2="500" y2="473.3333333333333"></line><line x1="500" y1="373.3333333333333" x2="600" y2="473.3333333333333"></line><line x1="600" y1="373.3333333333333" x2="700" y2="473.3333333333333"></line><line x1="700" y1="373.3333333333333" x2="800" y2="473.3333333333333"></line><line x1="800" y1="373.3333333333333" x2="900" y2="473.3333333333333"></line><line x1="0" y1="426.66666666666663" x2="100" y2="526.6666666666666"></line><line x1="100" y1="426.66666666666663" x2="200" y2="526.6666666666666"></line><line x1="200" y1="426.66666666666663" x2="300" y2="526.6666666666666"></line><line x1="300" y1="426.66666666666663" x2="400" y2="526.6666666666666"></line><line x1="400" y1="426.66666666666663" x2="500" y2="526.6666666666666"></line><line x1="500" y1="426.66666666666663" x2="600" y2="526.6666666666666"></line><line x1="600" y1="426.66666666666663" x2="700" y2="526.6666666666666"></line><line x1="700" y1="426.66666666666663" x2="800" y2="526.6666666666666"></line><line x1="800" y1="426.66666666666663" x2="900" y2="526.6666666666666"></line><line x1="0" y1="479.99999999999994" x2="100" y2="580"></line><line x1="100" y1="479.99999999999994" x2="200" y2="580"></line><line x1="200" y1="479.99999999999994" x2="300" y2="580"></line><line x1="300" y1="479.99999999999994" x2="400" y2="580"></line><line x1="400" y1="479.99999999999994" x2="500" y2="580"></line><line x1="500" y1="479.99999999999994" x2="600" y2="580"></line><line x1="600" y1="479.99999999999994" x2="700" y2="580"></line><line x1="700" y1="479.99999999999994" x2="800" y2="580"></line><line x1="800" y1="479.99999999999994" x2="900" y2="580"></line><line x1="0" y1="533.3333333333333" x2="100" y2="633.3333333333333"></line><line x1="100" y1="533.3333333333333" x2="200" y2="633.3333333333333"></line><line x1="200" y1="533.3333333333333" x2="300" y2="633.3333333333333"></line><line x1="300" y1="533.3333333333333" x2="400" y2="633.3333333333333"></line><line x1="400" y1="533.3333333333333" x2="500" y2="633.3333333333333"></line><line x1="500" y1="533.3333333333333" x2="600" y2="633.3333333333333"></line><line x1="600" y1="533.3333333333333" x2="700" y2="633.3333333333333"></line><line x1="700" y1="533.3333333333333" x2="800" y2="633.3333333333333"></line><line x1="800" y1="533.3333333333333" x2="900" y2="633.3333333333333"></line><line x1="0" y1="586.6666666666666" x2="100" y2="686.6666666666666"></line><line x1="100" y1="586.6666666666666" x2="200" y2="686.6666666666666"></line><line x1="200" y1="586.6666666666666" x2="300" y2="686.6666666666666"></line><line x1="300" y1="586.6666666666666" x2="400" y2="686.6666666666666"></line><line x1="400" y1="586.6666666666666" x2="500" y2="686.6666666666666"></line><line x1="500" y1="586.6666666666666" x2="600" y2="686.6666666666666"></line><line x1="600" y1="586.6666666666666" x2="700" y2="686.6666666666666"></line><line x1="700" y1="586.6666666666666" x2="800" y2="686.6666666666666"></line><line x1="800" y1="586.6666666666666" x2="900" y2="686.6666666666666"></line><line x1="0" y1="640" x2="100" y2="740"></line><line x1="100" y1="640" x2="200" y2="740"></line><line x1="200" y1="640" x2="300" y2="740"></line><line x1="300" y1="640" x2="400" y2="740"></line><line x1="400" y1="640" x2="500" y2="740"></line><line x1="500" y1="640" x2="600" y2="740"></line><line x1="600" y1="640" x2="700" y2="740"></line><line x1="700" y1="640" x2="800" y2="740"></line><line x1="800" y1="640" x2="900" y2="740"></line><line x1="0" y1="693.3333333333334" x2="100" y2="793.3333333333334"></line><line x1="100" y1="693.3333333333334" x2="200" y2="793.3333333333334"></line><line x1="200" y1="693.3333333333334" x2="300" y2="793.3333333333334"></line><line x1="300" y1="693.3333333333334" x2="400" y2="793.3333333333334"></line><line x1="400" y1="693.3333333333334" x2="500" y2="793.3333333333334"></line><line x1="500" y1="693.3333333333334" x2="600" y2="793.3333333333334"></line><line x1="600" y1="693.3333333333334" x2="700" y2="793.3333333333334"></line><line x1="700" y1="693.3333333333334" x2="800" y2="793.3333333333334"></line><line x1="800" y1="693.3333333333334" x2="900" y2="793.3333333333334"></line><line x1="0" y1="746.6666666666667" x2="100" y2="846.6666666666667"></line><line x1="100" y1="746.6666666666667" x2="200" y2="846.6666666666667"></line><line x1="200" y1="746.6666666666667" x2="300" y2="846.6666666666667"></line><line x1="300" y1="746.6666666666667" x2="400" y2="846.6666666666667"></line><line x1="400" y1="746.6666666666667" x2="500" y2="846.6666666666667"></line><line x1="500" y1="746.6666666666667" x2="600" y2="846.6666666666667"></line><line x1="600" y1="746.6666666666667" x2="700" y2="846.6666666666667"></line><line x1="700" y1="746.6666666666667" x2="800" y2="846.6666666666667"></line><line x1="800" y1="746.6666666666667" x2="900" y2="846.6666666666667"></line><line x1="0" y1="800.0000000000001" x2="100" y2="900.0000000000001"></line><line x1="100" y1="800.0000000000001" x2="200" y2="900.0000000000001"></line><line x1="200" y1="800.0000000000001" x2="300" y2="900.0000000000001"></line><line x1="300" y1="800.0000000000001" x2="400" y2="900.0000000000001"></line><line x1="400" y1="800.0000000000001" x2="500" y2="900.0000000000001"></line><line x1="500" y1="800.0000000000001" x2="600" y2="900.0000000000001"></line><line x1="600" y1="800.0000000000001" x2="700" y2="900.0000000000001"></line><line x1="700" y1="800.0000000000001" x2="800" y2="900.0000000000001"></line><line x1="800" y1="800.0000000000001" x2="900" y2="900.0000000000001"></line></g></svg>