<svg width="32" height="32" viewBox="0 0 32 32" fill="none" xmlns="http://www.w3.org/2000/svg">
<g clip-path="url(#clip0_1002_27)">
<path fill-rule="evenodd" clip-rule="evenodd" d="M10.7041 0.402821C8.94299 0.402821 7.25409 1.1024 6.00883 2.34766L1.90735e-06 8.35645V11.1069C1.90735e-06 13.0501 0.834687 14.7983 2.16508 16.0126C0.834687 17.2268 1.90735e-06 18.9751 1.90735e-06 20.9182V23.6687L6.00883 29.6775C7.25409 30.9228 8.94299 31.6223 10.7041 31.6223C12.6473 31.6223 14.3955 30.7877 15.6098 29.4573C16.824 30.7877 18.5723 31.6223 20.5154 31.6223C22.2765 31.6223 23.9654 30.9228 25.2107 29.6775L31.2195 23.6687V20.9182C31.2195 18.9751 30.3849 17.2268 29.0544 16.0126C30.3849 14.7983 31.2195 13.0501 31.2195 11.1069V8.35645L25.2107 2.34766C23.9654 1.1024 22.2765 0.402821 20.5154 0.402821C18.5723 0.402821 16.824 1.2375 15.6098 2.5679C14.3955 1.2375 12.6473 0.402821 10.7041 0.402821ZM20.1044 16.0126C20.0296 15.9443 19.9561 15.8741 19.8842 15.8021L15.6098 11.5277L11.3353 15.8021C11.2634 15.8741 11.1899 15.9443 11.1151 16.0126C11.1899 16.0809 11.2634 16.151 11.3353 16.223L15.6098 20.4974L19.8842 16.223C19.9561 16.151 20.0296 16.0809 20.1044 16.0126ZM17.3442 23.6687V24.9822C17.3442 26.7337 18.764 28.1535 20.5154 28.1535C21.3565 28.1535 22.1631 27.8194 22.7579 27.2247L27.7507 22.2318V20.9182C27.7507 19.1668 26.3309 17.747 24.5794 17.747C23.7384 17.747 22.9317 18.0811 22.337 18.6758L17.3442 23.6687ZM13.8754 23.6687L8.8825 18.6758C8.28777 18.0811 7.48117 17.747 6.6401 17.747C4.88866 17.747 3.46883 19.1668 3.46883 20.9182V22.2318L8.46166 27.2247C9.05639 27.8194 9.86303 28.1535 10.7041 28.1535C12.4555 28.1535 13.8754 26.7337 13.8754 24.9822V23.6687ZM13.8754 7.04291V8.35645L8.8825 13.3493C8.28777 13.944 7.48117 14.2782 6.6401 14.2782C4.88866 14.2782 3.46883 12.8583 3.46883 11.1069V9.79333L8.46166 4.80049C9.05639 4.20577 9.86303 3.87166 10.7041 3.87166C12.4555 3.87166 13.8754 5.29147 13.8754 7.04291ZM22.337 13.3493L17.3442 8.35645V7.04291C17.3442 5.29147 18.764 3.87166 20.5154 3.87166C21.3565 3.87166 22.1631 4.20577 22.7579 4.80049L27.7507 9.79333V11.1069C27.7507 12.8583 26.3309 14.2782 24.5794 14.2782C23.7384 14.2782 22.9317 13.944 22.337 13.3493Z" fill="#1B48DA"/>
</g>
<defs>
<clipPath id="clip0_1002_27">
<rect width="31.2195" height="32" fill="white"/>
</clipPath>
</defs>
</svg>
